# xmcd
#
# Track frame offsets:
#	150
#	10571
#	23189
#	35116
#	51232
#	67944
#	84450
#	98158
#	112321
#	128068
#	137322
#	151209
#	164729
#	180416
#	192375
#	210030
#	223647
#	239580
#
# Disc length: 3423 seconds
#
# Revision: 2
# Processed by: cddbd v1.5.2PL0 Copyright (c) Steve Scherf et al.
# Submitted via: EasyCDDAExtractor 16.0.8.2
#
DISCID=f10d5d12
DTITLE=Γιουλάκης Νίκος - Οι βεργούλες-Ν. Γιουλάκης 2
DYEAR=2009
DGENRE=Ρεμπέτικη
TTITLE0=Δεν ξανακάνω φυλακή (Καπετανάκης)[παρ., διασκ. Δ.Βαρδουλάκης]
TTITLE1=Σήκω, χόρεψέ το [Γ. Τατασσόπουλος-Χρ. Κολοκοτρώνης]
TTITLE2=Στο δέκα τρία το κελί [Γ. Λαύκας-ιδίου κ Νίκος Κάπαρης]
TTITLE3=Μάννα με μαχαιρώσανε [Μάρκος Βαμβακάρης]
TTITLE4=Μπρος στο ρημαγμένο σπίτι [Βασίλης Τσισάνης]
TTITLE5=Τα νιάτα δεν τα χόρτασα [Γ.Παπαϊωάννου-ιδίου κ Χαρ. Βασιλειάδης]
TTITLE6=Όταν με βλέπεις και περνώ [Μάρκος Βαμβακάρης]
TTITLE7=Ο τραυματίας [Βασίλης Τσιτσάνης]
TTITLE8=Από μικρός ορφάνεψα(Ορφ. μκρός)[Σ.Περιστέρης-Πιπίτσα Οικονόμου]
TTITLE9=Στην Καλαμπάκα μιά βραδιά [Βασ. Τσιτσάνης-Στρ. Παγιουμτζής]
TTITLE10=Ο συνάχης [Μάρκος Βαμβακάρης]
TTITLE11=Ο μουργέλας [Γιάννης Τάχτας]
TTITLE12=Αλή Μπαμπά [Γιώργος Μητσάκης]
TTITLE13=Ο κουμπαράς [Απόστολος Καλδάρας]
TTITLE14=Απ' την τουρκία διωγμένοι [Γιάννης Τάχτας-Πέτρος Χάλαρης]
TTITLE15=Η κυρά μου η κουτσομπόλα [Γιάννης Τάχτας-ιδίου κ Κώστ. Διαλεχτός]
TTITLE16=Ο πόνος δεν μοιράζεται [Π.Παναγιωτίδης-Γ.Βασιλόπουλος-Β.Ατραΐδης]
TTITLE17=Ψεύτισε πλέον ο ντουνιάς [Κώστας Ρούκουνας]
EXTD=
EXTT0=
EXTT1=
EXTT2=
EXTT3=
EXTT4=
EXTT5=
EXTT6=
EXTT7=
EXTT8=
EXTT9=
EXTT10=
EXTT11=
EXTT12=
EXTT13=
EXTT14=
EXTT15=
EXTT16=
EXTT17=
PLAYORDER=
